<svg width="234" height="26" viewBox="0 0 234 26" fill="none" xmlns="http://www.w3.org/2000/svg">
<path d="M3.8 22.792C4.056 23.048 4.38667 23.272 4.792 23.464C5.19733 23.6347 5.80533 23.72 6.616 23.72C7.29867 23.72 7.93867 23.6347 8.536 23.464C9.13333 23.272 9.64533 23.0053 10.072 22.664C10.52 22.3013 10.872 21.8747 11.128 21.384C11.384 20.872 11.512 20.296 11.512 19.656C11.512 18.8027 11.2453 18.088 10.712 17.512C10.2 16.936 9.54933 16.424 8.76 15.976C7.992 15.528 7.14933 15.0907 6.232 14.664C5.31467 14.2373 4.46133 13.736 3.672 13.16C2.904 12.5627 2.25333 11.8587 1.72 11.048C1.208 10.216 0.952 9.18133 0.952 7.944C0.952 7.048 1.112 6.248 1.432 5.544C1.752 4.84 2.2 4.24267 2.776 3.752C3.37333 3.26133 4.07733 2.888 4.888 2.632C5.69867 2.35467 6.60533 2.216 7.608 2.216C8.90933 2.216 10.0933 2.32267 11.16 2.536C12.248 2.728 13.1013 2.97333 13.72 3.272C13.72 3.63467 13.688 4.06133 13.624 4.552C13.5813 5.02133 13.5173 5.512 13.432 6.024C13.368 6.536 13.2933 7.03733 13.208 7.528C13.1227 7.99733 13.0373 8.41333 12.952 8.776H12.12L10.84 4.392C10.456 4.22133 9.96533 4.09333 9.368 4.008C8.792 3.92267 8.17333 3.88 7.512 3.88C6.424 3.88 5.54933 4.18933 4.888 4.808C4.22667 5.40533 3.896 6.248 3.896 7.336C3.896 8.21067 4.152 8.94667 4.664 9.544C5.19733 10.1413 5.85867 10.6747 6.648 11.144C7.43733 11.6133 8.28 12.072 9.176 12.52C10.0933 12.9467 10.9467 13.448 11.736 14.024C12.5253 14.6 13.176 15.2827 13.688 16.072C14.2213 16.8613 14.488 17.8427 14.488 19.016C14.488 19.976 14.3067 20.8507 13.944 21.64C13.6027 22.4293 13.1013 23.1013 12.44 23.656C11.7787 24.2107 10.968 24.6373 10.008 24.936C9.048 25.2347 7.96 25.384 6.744 25.384C5.4 25.384 4.19467 25.224 3.128 24.904C2.06133 24.584 1.304 24.2427 0.856 23.88C0.877333 23.5173 0.909333 23.08 0.952 22.568C1.016 22.056 1.08 21.5333 1.144 21C1.22933 20.4453 1.31467 19.912 1.4 19.4C1.48533 18.888 1.57067 18.4507 1.656 18.088H2.488L3.8 22.792ZM34.3963 25H27.4843V24.2C27.9963 23.9227 28.6363 23.6667 29.4043 23.432V15.944C29.4043 14.28 29.1696 12.9787 28.7003 12.04C28.2309 11.08 27.3776 10.6 26.1403 10.6C25.5856 10.6 25.0843 10.7067 24.6363 10.92C24.1883 11.112 23.7829 11.368 23.4203 11.688C23.0576 12.008 22.7483 12.3813 22.4923 12.808C22.2363 13.2133 22.0443 13.64 21.9163 14.088V23.432C22.2576 23.5173 22.5776 23.6133 22.8763 23.72C23.1963 23.8267 23.5056 23.9867 23.8043 24.2V25H16.9243V24.2C17.5856 23.8587 18.2896 23.6027 19.0363 23.432V3.176L16.6043 2.92V2.088C17.2229 1.832 17.9376 1.608 18.7483 1.416C19.5803 1.224 20.3696 1.064 21.1163 0.935999H21.9163V12.232H21.9483C22.3963 11.2293 23.0363 10.376 23.8683 9.672C24.7216 8.968 25.7456 8.616 26.9403 8.616C27.7936 8.616 28.5509 8.72267 29.2123 8.936C29.8949 9.128 30.4603 9.48 30.9083 9.992C31.3563 10.504 31.6976 11.1973 31.9323 12.072C32.1669 12.9253 32.2843 14.0133 32.2843 15.336V23.432C32.6469 23.5173 33.0096 23.6133 33.3723 23.72C33.7349 23.8267 34.0763 23.9867 34.3963 24.2V25ZM48.0575 20.808C48.0575 21.2773 48.0682 21.6827 48.0895 22.024C48.1108 22.3653 48.1322 22.728 48.1535 23.112L50.3615 23.432V24.104C49.8282 24.3813 49.2308 24.6267 48.5695 24.84C47.9295 25.0533 47.3108 25.2133 46.7135 25.32H45.9135C45.7002 24.8293 45.5722 24.296 45.5295 23.72C45.4868 23.1227 45.4548 22.472 45.4335 21.768H45.2735C45.1882 22.1947 45.0175 22.632 44.7615 23.08C44.5268 23.5067 44.2068 23.8907 43.8015 24.232C43.4175 24.5733 42.9588 24.8507 42.4255 25.064C41.8922 25.2773 41.2842 25.384 40.6015 25.384C39.3002 25.384 38.2335 24.9893 37.4015 24.2C36.5908 23.4107 36.1855 22.376 36.1855 21.096C36.1855 20.1147 36.3775 19.3147 36.7615 18.696C37.1668 18.056 37.7535 17.5547 38.5215 17.192C39.2895 16.8293 40.2388 16.5733 41.3695 16.424C42.5002 16.2533 43.8122 16.1253 45.3055 16.04C45.3908 15.1227 45.4122 14.3013 45.3695 13.576C45.3482 12.8293 45.2308 12.2 45.0175 11.688C44.8255 11.1547 44.5268 10.7493 44.1215 10.472C43.7375 10.1733 43.2255 10.024 42.5855 10.024C42.2868 10.024 41.9455 10.0453 41.5615 10.088C41.1988 10.1093 40.8362 10.1947 40.4735 10.344L38.9695 14.184H38.1375C37.9242 13.544 37.7322 12.8827 37.5615 12.2C37.4122 11.5173 37.3162 10.8453 37.2735 10.184C38.0842 9.69333 38.9802 9.30933 39.9615 9.032C40.9642 8.75467 42.0735 8.616 43.2895 8.616C44.3775 8.616 45.2415 8.776 45.8815 9.096C46.5428 9.39467 47.0442 9.78933 47.3855 10.28C47.7268 10.7707 47.9508 11.3147 48.0575 11.912C48.1642 12.5093 48.2175 13.1067 48.2175 13.704C48.2175 14.984 48.1855 16.2213 48.1215 17.416C48.0788 18.5893 48.0575 19.72 48.0575 20.808ZM41.8815 23.4C42.4148 23.4 42.8842 23.2933 43.2895 23.08C43.6948 22.8667 44.0362 22.6107 44.3135 22.312C44.5908 22.0133 44.8148 21.7147 44.9855 21.416C45.1562 21.096 45.2735 20.8293 45.3375 20.616V17.256C44.1002 17.256 43.0868 17.32 42.2975 17.448C41.5082 17.576 40.8895 17.7787 40.4415 18.056C39.9935 18.3333 39.6842 18.6853 39.5135 19.112C39.3428 19.5173 39.2575 19.9867 39.2575 20.52C39.2575 21.4373 39.4922 22.152 39.9615 22.664C40.4308 23.1547 41.0708 23.4 41.8815 23.4ZM58.9018 11.4C58.6671 11.528 58.3684 11.7947 58.0058 12.2C57.6644 12.584 57.3551 13.16 57.0778 13.928V23.432C57.5044 23.4747 57.9311 23.56 58.3578 23.688C58.7844 23.7947 59.2111 23.9653 59.6378 24.2V25H52.0858V24.2C52.4698 23.9867 52.8324 23.8267 53.1738 23.72C53.5151 23.6133 53.8564 23.5173 54.1978 23.432V10.856L52.0858 10.6V9.768C52.7684 9.46933 53.4724 9.23467 54.1978 9.064C54.9231 8.872 55.6164 8.72267 56.2778 8.616H57.0778V12.008H57.2058C57.3978 11.5813 57.6644 11.1547 58.0058 10.728C58.3684 10.3013 58.7738 9.91733 59.2218 9.576C59.6911 9.23467 60.1924 8.97867 60.7258 8.808C61.2804 8.616 61.8458 8.552 62.4218 8.616C62.5711 8.89333 62.6991 9.20267 62.8058 9.544C62.9338 9.864 63.0511 10.2053 63.1578 10.568V11.4H58.9018ZM80.911 25H74.063V24.2C74.2763 24.072 74.5323 23.944 74.831 23.816C75.151 23.6667 75.5243 23.5387 75.951 23.432V16.04C75.951 15.1867 75.9083 14.4187 75.823 13.736C75.759 13.0533 75.6203 12.488 75.407 12.04C75.215 11.5707 74.927 11.2187 74.543 10.984C74.159 10.728 73.6577 10.6 73.039 10.6C72.5697 10.6 72.1323 10.696 71.727 10.888C71.343 11.08 70.991 11.336 70.671 11.656C70.3723 11.976 70.1057 12.3387 69.871 12.744C69.6577 13.1493 69.487 13.576 69.359 14.024V23.432C69.7003 23.5387 70.0203 23.656 70.319 23.784C70.639 23.8907 70.9483 24.0293 71.247 24.2V25H64.367V24.2C64.6657 24.0507 64.9963 23.912 65.359 23.784C65.7217 23.656 66.095 23.5387 66.479 23.432V10.856L64.367 10.6V9.768C65.0497 9.46933 65.743 9.23467 66.447 9.064C67.1723 8.872 67.8763 8.72267 68.559 8.616H69.359V12.232H69.391C69.7323 11.2293 70.3083 10.376 71.119 9.672C71.951 8.968 72.975 8.616 74.191 8.616C74.703 8.616 75.1937 8.66933 75.663 8.776C76.1323 8.88267 76.5697 9.08533 76.975 9.384C77.3803 9.66133 77.7217 10.056 77.999 10.568C78.2763 11.08 78.479 11.7413 78.607 12.552C78.991 11.3787 79.6097 10.4293 80.463 9.704C81.3163 8.97867 82.383 8.616 83.663 8.616C84.4523 8.616 85.135 8.72267 85.711 8.936C86.3083 9.128 86.799 9.48 87.183 9.992C87.567 10.504 87.8443 11.1973 88.015 12.072C88.207 12.9467 88.303 14.056 88.303 15.4V23.432C89.0283 23.56 89.7323 23.816 90.415 24.2V25H83.535V24.2C84.175 23.8587 84.8043 23.6027 85.423 23.432V15.464C85.423 14.696 85.3803 14.0133 85.295 13.416C85.231 12.8187 85.0923 12.3173 84.879 11.912C84.6657 11.4853 84.367 11.1653 83.983 10.952C83.599 10.7173 83.087 10.6 82.447 10.6C81.423 10.6 80.623 10.952 80.047 11.656C79.4923 12.36 79.087 13.256 78.831 14.344V23.432C79.5777 23.6453 80.271 23.9013 80.911 24.2V25ZM99.416 25H92.312V24.2C92.632 24.0293 92.9627 23.8907 93.304 23.784C93.6453 23.656 94.0187 23.5387 94.424 23.432V10.856L92.312 10.6V9.768C92.9307 9.512 93.6027 9.288 94.328 9.096C95.0533 8.904 95.7787 8.744 96.504 8.616H97.304V23.432C97.7307 23.5387 98.1147 23.656 98.456 23.784C98.7973 23.8907 99.1173 24.0293 99.416 24.2V25ZM93.816 3.56C93.816 2.984 93.9973 2.52533 94.36 2.184C94.744 1.84267 95.2453 1.672 95.864 1.672C96.4827 1.672 96.9733 1.84267 97.336 2.184C97.6987 2.52533 97.88 2.984 97.88 3.56C97.88 4.136 97.6987 4.59467 97.336 4.936C96.9733 5.256 96.4827 5.416 95.864 5.416C95.2453 5.416 94.744 5.256 94.36 4.936C93.9973 4.59467 93.816 4.136 93.816 3.56ZM109.041 25H101.937V24.2C102.641 23.8587 103.345 23.6027 104.049 23.432V3.176L101.617 2.92V2.088C102.172 1.832 102.865 1.608 103.697 1.416C104.529 1.224 105.34 1.064 106.129 0.935999H106.929V23.432C107.633 23.6027 108.337 23.8587 109.041 24.2V25ZM123.37 20.808C123.37 21.2773 123.381 21.6827 123.402 22.024C123.423 22.3653 123.445 22.728 123.466 23.112L125.674 23.432V24.104C125.141 24.3813 124.543 24.6267 123.882 24.84C123.242 25.0533 122.623 25.2133 122.026 25.32H121.226C121.013 24.8293 120.885 24.296 120.842 23.72C120.799 23.1227 120.767 22.472 120.746 21.768H120.586C120.501 22.1947 120.33 22.632 120.074 23.08C119.839 23.5067 119.519 23.8907 119.114 24.232C118.73 24.5733 118.271 24.8507 117.738 25.064C117.205 25.2773 116.597 25.384 115.914 25.384C114.613 25.384 113.546 24.9893 112.714 24.2C111.903 23.4107 111.498 22.376 111.498 21.096C111.498 20.1147 111.69 19.3147 112.074 18.696C112.479 18.056 113.066 17.5547 113.834 17.192C114.602 16.8293 115.551 16.5733 116.682 16.424C117.813 16.2533 119.125 16.1253 120.618 16.04C120.703 15.1227 120.725 14.3013 120.682 13.576C120.661 12.8293 120.543 12.2 120.33 11.688C120.138 11.1547 119.839 10.7493 119.434 10.472C119.05 10.1733 118.538 10.024 117.898 10.024C117.599 10.024 117.258 10.0453 116.874 10.088C116.511 10.1093 116.149 10.1947 115.786 10.344L114.282 14.184H113.45C113.237 13.544 113.045 12.8827 112.874 12.2C112.725 11.5173 112.629 10.8453 112.586 10.184C113.397 9.69333 114.293 9.30933 115.274 9.032C116.277 8.75467 117.386 8.616 118.602 8.616C119.69 8.616 120.554 8.776 121.194 9.096C121.855 9.39467 122.357 9.78933 122.698 10.28C123.039 10.7707 123.263 11.3147 123.37 11.912C123.477 12.5093 123.53 13.1067 123.53 13.704C123.53 14.984 123.498 16.2213 123.434 17.416C123.391 18.5893 123.37 19.72 123.37 20.808ZM117.194 23.4C117.727 23.4 118.197 23.2933 118.602 23.08C119.007 22.8667 119.349 22.6107 119.626 22.312C119.903 22.0133 120.127 21.7147 120.298 21.416C120.469 21.096 120.586 20.8293 120.65 20.616V17.256C119.413 17.256 118.399 17.32 117.61 17.448C116.821 17.576 116.202 17.7787 115.754 18.056C115.306 18.3333 114.997 18.6853 114.826 19.112C114.655 19.5173 114.57 19.9867 114.57 20.52C114.57 21.4373 114.805 22.152 115.274 22.664C115.743 23.1547 116.383 23.4 117.194 23.4ZM129.19 3.56C129.297 3.28267 129.457 3.05867 129.67 2.888C129.905 2.696 130.204 2.6 130.566 2.6C131.228 2.6 131.676 2.92 131.91 3.56L130.886 8.872H130.246L129.19 3.56ZM142.003 21.352C142.003 20.7547 141.811 20.2533 141.427 19.848C141.064 19.4213 140.595 19.0267 140.019 18.664C139.443 18.3013 138.824 17.9493 138.163 17.608C137.523 17.2667 136.915 16.872 136.339 16.424C135.763 15.9547 135.283 15.4213 134.899 14.824C134.536 14.2267 134.355 13.4907 134.355 12.616C134.355 12.04 134.483 11.5067 134.739 11.016C135.016 10.5253 135.379 10.1093 135.827 9.768C136.275 9.40533 136.797 9.128 137.395 8.936C137.992 8.72267 138.632 8.616 139.315 8.616C140.467 8.616 141.405 8.68 142.131 8.808C142.877 8.936 143.592 9.11733 144.275 9.352C144.189 10.0347 144.083 10.728 143.955 11.432C143.848 12.1147 143.688 12.8187 143.475 13.544H142.675L141.459 10.28C141.203 10.1733 140.915 10.1093 140.595 10.088C140.275 10.0453 139.944 10.024 139.603 10.024C139.219 10.024 138.877 10.0987 138.579 10.248C138.301 10.376 138.056 10.5467 137.843 10.76C137.651 10.9733 137.501 11.2187 137.395 11.496C137.288 11.7733 137.235 12.0507 137.235 12.328C137.235 12.904 137.416 13.4053 137.779 13.832C138.163 14.2373 138.643 14.6213 139.219 14.984C139.795 15.3253 140.403 15.6667 141.043 16.008C141.704 16.3493 142.323 16.7333 142.899 17.16C143.475 17.5867 143.944 18.088 144.307 18.664C144.691 19.2187 144.883 19.8907 144.883 20.68C144.883 21.4053 144.723 22.056 144.403 22.632C144.104 23.208 143.677 23.6987 143.123 24.104C142.589 24.5093 141.96 24.8187 141.235 25.032C140.531 25.2667 139.773 25.384 138.963 25.384C138.045 25.384 137.203 25.2987 136.435 25.128C135.667 24.9787 134.867 24.7547 134.035 24.456C134.077 23.688 134.173 22.952 134.323 22.248C134.472 21.5227 134.664 20.8293 134.899 20.168H135.699L137.107 23.656C137.341 23.8267 137.619 23.9227 137.939 23.944C138.28 23.9653 138.589 23.976 138.867 23.976C139.805 23.976 140.563 23.72 141.139 23.208C141.715 22.696 142.003 22.0773 142.003 21.352ZM158.988 22.792C159.244 23.048 159.574 23.272 159.98 23.464C160.385 23.6347 160.993 23.72 161.804 23.72C162.486 23.72 163.126 23.6347 163.724 23.464C164.321 23.272 164.833 23.0053 165.26 22.664C165.708 22.3013 166.06 21.8747 166.316 21.384C166.572 20.872 166.7 20.296 166.7 19.656C166.7 18.8027 166.433 18.088 165.9 17.512C165.388 16.936 164.737 16.424 163.948 15.976C163.18 15.528 162.337 15.0907 161.42 14.664C160.502 14.2373 159.649 13.736 158.86 13.16C158.092 12.5627 157.441 11.8587 156.908 11.048C156.396 10.216 156.14 9.18133 156.14 7.944C156.14 7.048 156.3 6.248 156.62 5.544C156.94 4.84 157.388 4.24267 157.964 3.752C158.561 3.26133 159.265 2.888 160.076 2.632C160.886 2.35467 161.793 2.216 162.796 2.216C164.097 2.216 165.281 2.32267 166.348 2.536C167.436 2.728 168.289 2.97333 168.908 3.272C168.908 3.63467 168.876 4.06133 168.812 4.552C168.769 5.02133 168.705 5.512 168.62 6.024C168.556 6.536 168.481 7.03733 168.396 7.528C168.31 7.99733 168.225 8.41333 168.14 8.776H167.308L166.028 4.392C165.644 4.22133 165.153 4.09333 164.556 4.008C163.98 3.92267 163.361 3.88 162.7 3.88C161.612 3.88 160.737 4.18933 160.076 4.808C159.414 5.40533 159.084 6.248 159.084 7.336C159.084 8.21067 159.34 8.94667 159.852 9.544C160.385 10.1413 161.046 10.6747 161.836 11.144C162.625 11.6133 163.468 12.072 164.364 12.52C165.281 12.9467 166.134 13.448 166.924 14.024C167.713 14.6 168.364 15.2827 168.876 16.072C169.409 16.8613 169.676 17.8427 169.676 19.016C169.676 19.976 169.494 20.8507 169.132 21.64C168.79 22.4293 168.289 23.1013 167.628 23.656C166.966 24.2107 166.156 24.6373 165.196 24.936C164.236 25.2347 163.148 25.384 161.932 25.384C160.588 25.384 159.382 25.224 158.316 24.904C157.249 24.584 156.492 24.2427 156.044 23.88C156.065 23.5173 156.097 23.08 156.14 22.568C156.204 22.056 156.268 21.5333 156.332 21C156.417 20.4453 156.502 19.912 156.588 19.4C156.673 18.888 156.758 18.4507 156.844 18.088H157.676L158.988 22.792ZM184.464 20.808C184.464 21.2773 184.474 21.6827 184.496 22.024C184.517 22.3653 184.538 22.728 184.56 23.112L186.768 23.432V24.104C186.234 24.3813 185.637 24.6267 184.976 24.84C184.336 25.0533 183.717 25.2133 183.12 25.32H182.32C182.106 24.8293 181.978 24.296 181.936 23.72C181.893 23.1227 181.861 22.472 181.84 21.768H181.68C181.594 22.1947 181.424 22.632 181.168 23.08C180.933 23.5067 180.613 23.8907 180.208 24.232C179.824 24.5733 179.365 24.8507 178.832 25.064C178.298 25.2773 177.69 25.384 177.008 25.384C175.706 25.384 174.64 24.9893 173.808 24.2C172.997 23.4107 172.592 22.376 172.592 21.096C172.592 20.1147 172.784 19.3147 173.168 18.696C173.573 18.056 174.16 17.5547 174.928 17.192C175.696 16.8293 176.645 16.5733 177.776 16.424C178.906 16.2533 180.218 16.1253 181.712 16.04C181.797 15.1227 181.818 14.3013 181.776 13.576C181.754 12.8293 181.637 12.2 181.424 11.688C181.232 11.1547 180.933 10.7493 180.528 10.472C180.144 10.1733 179.632 10.024 178.992 10.024C178.693 10.024 178.352 10.0453 177.968 10.088C177.605 10.1093 177.242 10.1947 176.88 10.344L175.376 14.184H174.544C174.33 13.544 174.138 12.8827 173.968 12.2C173.818 11.5173 173.722 10.8453 173.68 10.184C174.49 9.69333 175.386 9.30933 176.368 9.032C177.37 8.75467 178.48 8.616 179.696 8.616C180.784 8.616 181.648 8.776 182.288 9.096C182.949 9.39467 183.45 9.78933 183.792 10.28C184.133 10.7707 184.357 11.3147 184.464 11.912C184.57 12.5093 184.624 13.1067 184.624 13.704C184.624 14.984 184.592 16.2213 184.528 17.416C184.485 18.5893 184.464 19.72 184.464 20.808ZM178.288 23.4C178.821 23.4 179.29 23.2933 179.696 23.08C180.101 22.8667 180.442 22.6107 180.72 22.312C180.997 22.0133 181.221 21.7147 181.392 21.416C181.562 21.096 181.68 20.8293 181.744 20.616V17.256C180.506 17.256 179.493 17.32 178.704 17.448C177.914 17.576 177.296 17.7787 176.848 18.056C176.4 18.3333 176.09 18.6853 175.92 19.112C175.749 19.5173 175.664 19.9867 175.664 20.52C175.664 21.4373 175.898 22.152 176.368 22.664C176.837 23.1547 177.477 23.4 178.288 23.4ZM195.916 25H188.812V24.2C189.516 23.8587 190.22 23.6027 190.924 23.432V3.176L188.492 2.92V2.088C189.047 1.832 189.74 1.608 190.572 1.416C191.404 1.224 192.215 1.064 193.004 0.935999H193.804V23.432C194.508 23.6027 195.212 23.8587 195.916 24.2V25ZM198.437 17C198.437 15.656 198.608 14.472 198.949 13.448C199.312 12.4027 199.824 11.528 200.485 10.824C201.146 10.0987 201.936 9.55467 202.853 9.192C203.792 8.808 204.826 8.616 205.957 8.616C207.28 8.616 208.421 8.81867 209.381 9.224C210.341 9.62933 211.12 10.2053 211.717 10.952C212.336 11.6773 212.784 12.552 213.061 13.576C213.36 14.6 213.509 15.7413 213.509 17C213.509 19.688 212.826 21.7573 211.461 23.208C210.096 24.6587 208.261 25.384 205.957 25.384C204.677 25.384 203.568 25.192 202.629 24.808C201.69 24.4027 200.912 23.8373 200.293 23.112C199.674 22.3653 199.205 21.48 198.885 20.456C198.586 19.4107 198.437 18.2587 198.437 17ZM201.509 17C201.509 17.96 201.594 18.8667 201.765 19.72C201.957 20.5733 202.245 21.32 202.629 21.96C203.034 22.5787 203.557 23.0693 204.197 23.432C204.837 23.7947 205.605 23.976 206.501 23.976C207.653 23.976 208.592 23.4107 209.317 22.28C210.064 21.1493 210.437 19.3893 210.437 17C210.437 16.0187 210.341 15.112 210.149 14.28C209.978 13.4267 209.701 12.6907 209.317 12.072C208.933 11.432 208.442 10.9307 207.845 10.568C207.248 10.2053 206.533 10.024 205.701 10.024C204.442 10.024 203.429 10.5893 202.661 11.72C201.893 12.8507 201.509 14.6107 201.509 17ZM233.277 25H226.397V24.2C226.973 23.9013 227.602 23.6453 228.285 23.432V15.848C228.285 14.2267 228.05 12.9467 227.581 12.008C227.111 11.0693 226.258 10.6 225.021 10.6C224.487 10.6 223.986 10.696 223.517 10.888C223.069 11.08 222.663 11.3467 222.301 11.688C221.959 12.008 221.661 12.3813 221.405 12.808C221.149 13.2133 220.946 13.64 220.797 14.088V23.432C221.458 23.56 222.098 23.816 222.717 24.2V25H215.805V24.2C216.338 23.9227 217.042 23.6667 217.917 23.432V10.856L215.805 10.6V9.768C216.359 9.53333 216.999 9.32 217.725 9.128C218.45 8.936 219.207 8.76533 219.997 8.616H220.797V12.2H220.829C221.277 11.2187 221.917 10.376 222.749 9.672C223.602 8.968 224.626 8.616 225.821 8.616C226.674 8.616 227.431 8.72267 228.093 8.936C228.775 9.128 229.341 9.48 229.789 9.992C230.237 10.504 230.578 11.1973 230.812 12.072C231.047 12.9253 231.165 14.0133 231.165 15.336V23.432C232.018 23.5813 232.722 23.8373 233.277 24.2V25Z" fill="#191A1A"/>
</svg>
