<svg width="548" height="136" viewBox="0 0 548 136" fill="none" xmlns="http://www.w3.org/2000/svg">
<g clip-path="url(#clip0_94_71)">
<rect x="0.0606689" width="136" height="136" rx="36.6154" fill="#D2F059"/>
<g filter="url(#filter0_dddd_94_71)">
<path fill-rule="evenodd" clip-rule="evenodd" d="M68.0502 95.4199C83.1942 95.4199 95.4684 83.1441 95.4684 68.0011C95.4684 52.8581 83.1942 40.5822 68.0502 40.5822C52.9063 40.5822 40.6321 52.8581 40.6321 68.0011C40.6321 83.1441 52.9063 95.4199 68.0502 95.4199ZM68.0502 116.387C91.1809 116.387 110.521 100.156 115.302 78.4616H128.202V57.5385H115.301C110.52 35.8451 91.1802 19.6148 68.0502 19.6148C44.9203 19.6148 25.5808 35.8451 20.7991 57.5385H7.89661V78.4616H20.7986C25.5795 100.156 44.9195 116.387 68.0502 116.387Z" fill="url(#paint0_linear_94_71)"/>
</g>
</g>
<path fill-rule="evenodd" clip-rule="evenodd" d="M196.52 91.2888C208.348 91.2888 217.937 81.7005 217.937 69.8728C217.937 58.045 208.348 48.4567 196.52 48.4567C184.693 48.4567 175.104 58.045 175.104 69.8728C175.104 81.7005 184.693 91.2888 196.52 91.2888ZM196.52 107.666C217.393 107.666 234.314 90.7452 234.314 69.8728C234.314 49.0003 217.393 32.0797 196.52 32.0797C175.648 32.0797 158.727 49.0003 158.727 69.8728C158.727 90.7452 175.648 107.666 196.52 107.666Z" fill="#172A39"/>
<path fill-rule="evenodd" clip-rule="evenodd" d="M243.14 80.4664C243.14 80.5443 243.142 80.6222 243.142 80.7001V75.933V80.0348C243.142 95.2752 255.48 107.634 270.713 107.666C270.719 107.666 270.726 107.666 270.731 107.666C270.745 107.666 270.759 107.666 270.774 107.666C270.788 107.666 270.802 107.666 270.816 107.666C270.821 107.666 270.828 107.666 270.834 107.666C276.35 107.654 281.488 106.025 285.799 103.228L278.137 90.6257C276.049 92.0801 273.511 92.9329 270.774 92.9329C263.651 92.9329 257.876 87.1582 257.876 80.0348V60.0664H281.674V45.3332H257.876V44.1999H257.874V22.6667H243.137V45.3332H235.207V60.0664H243.137L243.14 80.4664Z" fill="#172A39"/>
<path fill-rule="evenodd" clip-rule="evenodd" d="M293.027 80.4664C293.027 80.5443 293.027 80.6222 293.027 80.7001V75.933H293.029V80.0348C293.029 95.277 305.37 107.637 320.605 107.666C320.612 107.666 320.618 107.666 320.625 107.666C320.637 107.666 320.648 107.666 320.66 107.666C320.671 107.666 320.683 107.666 320.694 107.666C320.701 107.666 320.708 107.666 320.713 107.666C326.234 107.656 331.373 106.026 335.684 103.228L328.024 90.6257C325.936 92.0801 323.397 92.9329 320.66 92.9329C313.536 92.9329 307.761 87.1582 307.761 80.0348V60.0665H331.559V45.3332H307.761V44.2V22.6667H293.022V45.3332H285.093V60.0665H293.022L293.027 80.4664Z" fill="#172A39"/>
<path fill-rule="evenodd" clip-rule="evenodd" d="M372.408 91.2888C384.237 91.2888 393.824 81.7005 393.824 69.8728C393.824 58.045 384.237 48.4567 372.408 48.4567C360.58 48.4567 350.993 58.045 350.993 69.8728C350.993 81.7005 360.58 91.2888 372.408 91.2888ZM372.408 107.666C393.28 107.666 410.201 90.7452 410.201 69.8728C410.201 49.0003 393.28 32.0797 372.408 32.0797C351.536 32.0797 334.616 49.0003 334.616 69.8728C334.616 90.7452 351.536 107.666 372.408 107.666Z" fill="#172A39"/>
<path d="M415.466 107.585V22.7552H430.8V69.7553C434.424 68.9912 437.868 67.501 441.131 65.2847C444.394 62.9919 447.221 60.0496 449.613 56.4577C452.005 52.8658 453.092 50.0835 454.034 45.4217H470.347C469.186 50.3128 467.883 53.5154 465.273 57.7188C462.736 61.9221 459.763 65.5903 456.355 68.7236C452.947 71.857 449.395 74.1878 445.699 75.7164C448.526 76.557 451.354 78.009 454.181 80.0725C457.008 82.0594 459.653 84.505 462.118 87.4091C464.584 90.2367 466.686 93.37 468.426 96.8092C470.166 100.248 471.326 103.84 471.907 107.585H455.594C454.87 104.069 453.673 100.898 452.005 98.0701C450.337 95.166 448.381 92.644 446.132 90.5042C443.958 88.2879 441.529 86.492 438.847 85.1163C436.237 83.7407 433.555 82.9001 430.8 82.5945V107.585H415.466Z" fill="#172A39"/>
<path d="M476.322 22.6667H492.187V23.8C492.187 32.5629 485.084 39.6665 476.322 39.6665V22.6667Z" fill="#172A39"/>
<path d="M492.189 45.3333H476.322V107.666H492.189V45.3333Z" fill="#172A39"/>
<path fill-rule="evenodd" clip-rule="evenodd" d="M504.514 80.4664C504.514 80.5443 504.514 80.6222 504.514 80.7001V75.933V80.0348C504.514 95.2752 516.854 107.634 532.085 107.666C532.092 107.666 532.098 107.666 532.103 107.666C532.117 107.666 532.131 107.666 532.145 107.666C532.16 107.666 532.174 107.666 532.188 107.666C532.195 107.666 532.2 107.666 532.206 107.666C537.724 107.654 542.862 106.025 547.171 103.228L539.509 90.6257C537.421 92.0801 534.883 92.9329 532.145 92.9329C525.023 92.9329 519.248 87.1582 519.248 80.0348V60.0664H543.046V45.3332H519.248V44.1999H519.246V22.6667H504.509V45.3332H496.58V60.0664H504.509L504.514 80.4664Z" fill="#172A39"/>
<defs>
<filter id="filter0_dddd_94_71" x="-14.4355" y="12.1708" width="164.97" height="141.437" filterUnits="userSpaceOnUse" color-interpolation-filters="sRGB">
<feFlood flood-opacity="0" result="BackgroundImageFix"/>
<feColorMatrix in="SourceAlpha" type="matrix" values="0 0 0 0 0 0 0 0 0 0 0 0 0 0 0 0 0 0 127 0" result="hardAlpha"/>
<feOffset dy="14.8881"/>
<feGaussianBlur stdDeviation="11.1661"/>
<feComposite in2="hardAlpha" operator="out"/>
<feColorMatrix type="matrix" values="0 0 0 0 0 0 0 0 0 0 0 0 0 0 0 0 0 0 0.06 0"/>
<feBlend mode="normal" in2="BackgroundImageFix" result="effect1_dropShadow_94_71"/>
<feColorMatrix in="SourceAlpha" type="matrix" values="0 0 0 0 0 0 0 0 0 0 0 0 0 0 0 0 0 0 127 0" result="hardAlpha"/>
<feOffset dx="-3.34982" dy="11.1661"/>
<feGaussianBlur stdDeviation="6.51353"/>
<feComposite in2="hardAlpha" operator="out"/>
<feColorMatrix type="matrix" values="0 0 0 0 0 0 0 0 0 0 0 0 0 0 0 0 0 0 0.04 0"/>
<feBlend mode="normal" in2="effect1_dropShadow_94_71" result="effect2_dropShadow_94_71"/>
<feColorMatrix in="SourceAlpha" type="matrix" values="0 0 0 0 0 0 0 0 0 0 0 0 0 0 0 0 0 0 127 0" result="hardAlpha"/>
<feOffset dy="3.72202"/>
<feGaussianBlur stdDeviation="3.72202"/>
<feComposite in2="hardAlpha" operator="out"/>
<feColorMatrix type="matrix" values="0 0 0 0 0 0 0 0 0 0 0 0 0 0 0 0 0 0 0.03 0"/>
<feBlend mode="normal" in2="effect2_dropShadow_94_71" result="effect3_dropShadow_94_71"/>
<feColorMatrix in="SourceAlpha" type="matrix" values="0 0 0 0 0 0 0 0 0 0 0 0 0 0 0 0 0 0 127 0" result="hardAlpha"/>
<feOffset dy="3.72202"/>
<feGaussianBlur stdDeviation="1.86101"/>
<feComposite in2="hardAlpha" operator="out"/>
<feColorMatrix type="matrix" values="0 0 0 0 0 0 0 0 0 0 0 0 0 0 0 0 0 0 0.08 0"/>
<feBlend mode="normal" in2="effect3_dropShadow_94_71" result="effect4_dropShadow_94_71"/>
<feBlend mode="normal" in="SourceGraphic" in2="effect4_dropShadow_94_71" result="shape"/>
</filter>
<linearGradient id="paint0_linear_94_71" x1="68.0493" y1="116.387" x2="68.0493" y2="19.6148" gradientUnits="userSpaceOnUse">
<stop stop-color="#072F50" stop-opacity="0.95"/>
<stop offset="1" stop-color="#172A39" stop-opacity="0.75"/>
</linearGradient>
<clipPath id="clip0_94_71">
<rect x="0.0606689" width="136" height="136" rx="36.6154" fill="white"/>
</clipPath>
</defs>
</svg>
