<svg width="136" height="137" viewBox="0 0 136 137" fill="none" xmlns="http://www.w3.org/2000/svg">
<path fill-rule="evenodd" clip-rule="evenodd" d="M36.62 0.970703C16.3953 0.970703 0 17.366 0 37.5907V100.351C0 120.575 16.3953 136.971 36.62 136.971H99.38C119.605 136.971 136 120.575 136 100.351V37.5907C136 17.366 119.605 0.970703 99.38 0.970703H36.62ZM95.5756 69.357C95.5756 84.5 83.3014 96.7758 68.1574 96.7758C53.0135 96.7758 40.7393 84.5 40.7393 69.357C40.7393 54.2139 53.0135 41.9381 68.1574 41.9381C83.3014 41.9381 95.5756 54.2139 95.5756 69.357ZM115.409 79.8174C110.628 101.512 91.2882 117.743 68.1574 117.743C45.0267 117.743 25.6867 101.512 20.9058 79.8174H8V58.8944H20.9063C25.688 37.201 45.0275 20.9707 68.1574 20.9707C91.2874 20.9707 110.627 37.201 115.409 58.8944H128.308L128.308 79.8174H115.409Z" fill="#FEFEFE"/>
</svg>
